{"title":"Meeting Evil 2012 HDRip XViD DTRG","uid":7155558,"size":1521787162,"categoryP":"video","categoryS":"movies","magnet":"?xt=urn:btih:da2c92912a320e3c8c484020fde80b3fda14ad19&amp;dn=Meeting+Evil+2012+HDRip+XViD+DTRG&amp;tr=udp%3A%2F%2Ftracker.openbittorrent.com%3A80&amp;tr=udp%3A%2F%2Fopen.demonii.com%3A1337&amp;tr=udp%3A%2F%2Ftracker.coppersurfer.tk%3A6969&amp;tr=udp%3A%2F%2Fexodus.desync.com%3A6969","seeders":0,"leechers":0,"uploader":"BLOVES","files":3,"time":1333447208,"description":"Format : AVI\nFormat/Info : Audio Video Interleave\nFile size : 1.40 GiB\nDuration : 1h 29mn\nOverall bit rate : 2 258 Kbps\nWriting library : VirtualDub build 32842/release\n\nVideo\nID : 0\nFormat : MPEG-4 Visual\nFormat profile : Advanced Simple@L5\nFormat settings, BVOP : 2\nFormat settings, QPel : No\nFormat settings, GMC : No warppoints\nFormat settings, Matrix : Default (H.263)\nMuxing mode : Packed bitstream\nCodec ID : XVID\nCodec ID/Hint : XviD\nDuration : 1h 29mn\nBit rate : 1 800 Kbps\nWidth : 720 pixels\nHeight : 400 pixels\nDisplay aspect ratio : 16:9\nFrame rate : 23.976 fps\nColor space : YUV\nChroma subsampling : 4:2:0\nBit depth : 8 bits\nScan type : Progressive\nCompression mode : Lossy\nBits/(Pixel*Frame) : 0.261\nStream size : 1.12 GiB (80%)\nWriting library : XviD 64\n\nAudio\nID : 1\nFormat : AC-3\nFormat/Info : Audio Coding 3\nMode extension : CM (complete main)\nCodec ID : 2000\nDuration : 1h 29mn\nBit rate mode : Constant\nBit rate : 448 Kbps\nChannel(s) : 6 channels\nChannel positions : Front: L C R, Side: L R, LFE\nSampling rate : 48.0 KHz\nBit depth : 16 bits\nCompression mode : Lossy\nStream size : 286 MiB (20%)\nAlignment : Split accross interleaves\nInterleave, duration : 42 ms (1.00 video frame)\nInterleave, preload duration : 500 ms\n\n\n\n\n\n\n\n &lt;a href=&quot;\nhttp://www.imdb.com/title/tt1810697/&quot; rel=&quot;nofollow&quot; target=&quot;_NEW&quot;&gt;\nhttp://www.imdb.com/title/tt1810697/&lt;/a&gt;\n\n\n\n\n(awaiting 5 votes) \nReviews: 1 user\n\nFollows disillusioned young family man John as a mysterious stranger, Richie takes him on a murder-fueled ride that transforms the weak-willed John into a desperate hero willing to go to any length to protect his family.\n\nDirector:\nChris Fisher\nWriters:\nThomas Berger (novel), Chris Fisher\nStars:\nLeslie Bibb, Samuel L. Jackson and Luke Wilson \n\n\n\n\n\n\nSource Used\n\n\n\nSiC 720p .............thanks\n\n\n\n\nEnjoy","torrent":{"xt":"urn:btih:da2c92912a320e3c8c484020fde80b3fda14ad19","amp;dn":"Meeting+Evil+2012+HDRip+XViD+DTRG","amp;tr":["udp%3A%2F%2Ftracker.openbittorrent.com%3A80","udp%3A%2F%2Fopen.demonii.com%3A1337","udp%3A%2F%2Ftracker.coppersurfer.tk%3A6969","udp%3A%2F%2Fexodus.desync.com%3A6969"],"infoHash":"da2c92912a320e3c8c484020fde80b3fda14ad19","infoHashBuffer":{"type":"Buffer","data":[218,44,146,145,42,50,14,60,140,72,64,32,253,232,11,63,218,20,173,25]},"announce":[],"urlList":[]}}